<svg viewBox="0 0 900 442" xmlns="http://www.w3.org/2000/svg"><rect width="900" height="442" fill="#050706"/><rect x="10" y="10" width="880" height="130" rx="10" fill="#0F1210" stroke="#1E2420" stroke-width="1.5"/><rect x="10" y="10" width="4" height="130" rx="2" fill="#39FF14"/><text x="36" y="44" font-family="'JetBrains Mono',monospace" font-size="17" font-weight="700" fill="#F3F4F6">MediCare — Smart Healthcare System</text><text x="36" y="68" font-family="monospace" font-size="12.5" fill="#8B8D91">Full-stack healthcare platform with AI symptom checker (Claude API) and keyword fallback.</text><rect x="36" y="82" width="48" height="22" rx="11" fill="#151A17" stroke="#2A332C" stroke-width="1"/><text x="60.0" y="97" font-family="monospace" font-size="11" fill="#39FF14" text-anchor="middle">Java</text><rect x="92" y="82" width="97" height="22" rx="11" fill="#151A17" stroke="#2A332C" stroke-width="1"/><text x="140.5" y="97" font-family="monospace" font-size="11" fill="#39FF14" text-anchor="middle">Spring Boot</text><rect x="197" y="82" width="83" height="22" rx="11" fill="#151A17" stroke="#2A332C" stroke-width="1"/><text x="238.5" y="97" font-family="monospace" font-size="11" fill="#39FF14" text-anchor="middle">Thymeleaf</text><rect x="288" y="82" width="55" height="22" rx="11" fill="#151A17" stroke="#2A332C" stroke-width="1"/><text x="315.5" y="97" font-family="monospace" font-size="11" fill="#39FF14" text-anchor="middle">MySQL</text><text x="864" y="118" font-family="monospace" font-size="12" fill="#56A8F5" text-anchor="end">github.com/vishva-2004/MediCare-Smart-Healthcare-System &#8599;</text><rect x="10" y="156" width="880" height="130" rx="10" fill="#0F1210" stroke="#1E2420" stroke-width="1.5"/><rect x="10" y="156" width="4" height="130" rx="2" fill="#39FF14"/><text x="36" y="190" font-family="'JetBrains Mono',monospace" font-size="17" font-weight="700" fill="#F3F4F6">Vehicle Showroom Management System</text><text x="36" y="214" font-family="monospace" font-size="12.5" fill="#8B8D91">Role-based platform for vehicle inventory, bookings, service and sales tracking.</text><rect x="36" y="228" width="48" height="22" rx="11" fill="#151A17" stroke="#2A332C" stroke-width="1"/><text x="60.0" y="243" font-family="monospace" font-size="11" fill="#39FF14" text-anchor="middle">Java</text><rect x="92" y="228" width="97" height="22" rx="11" fill="#151A17" stroke="#2A332C" stroke-width="1"/><text x="140.5" y="243" font-family="monospace" font-size="11" fill="#39FF14" text-anchor="middle">Spring Boot</text><rect x="197" y="228" width="83" height="22" rx="11" fill="#151A17" stroke="#2A332C" stroke-width="1"/><text x="238.5" y="243" font-family="monospace" font-size="11" fill="#39FF14" text-anchor="middle">Thymeleaf</text><rect x="288" y="228" width="55" height="22" rx="11" fill="#151A17" stroke="#2A332C" stroke-width="1"/><text x="315.5" y="243" font-family="monospace" font-size="11" fill="#39FF14" text-anchor="middle">MySQL</text><text x="864" y="264" font-family="monospace" font-size="12" fill="#56A8F5" text-anchor="end">github.com/vishva-2004/car-care-management-system &#8599;</text><rect x="10" y="302" width="880" height="130" rx="10" fill="#0F1210" stroke="#1E2420" stroke-width="1.5"/><rect x="10" y="302" width="4" height="130" rx="2" fill="#39FF14"/><text x="36" y="336" font-family="'JetBrains Mono',monospace" font-size="17" font-weight="700" fill="#F3F4F6">Spring Boot E-Commerce REST API</text><text x="36" y="360" font-family="monospace" font-size="12.5" fill="#8B8D91">Secure backend REST API — JWT auth, product catalog, cart, order management.</text><rect x="36" y="374" width="48" height="22" rx="11" fill="#151A17" stroke="#2A332C" stroke-width="1"/><text x="60.0" y="389" font-family="monospace" font-size="11" fill="#39FF14" text-anchor="middle">Java</text><rect x="92" y="374" width="97" height="22" rx="11" fill="#151A17" stroke="#2A332C" stroke-width="1"/><text x="140.5" y="389" font-family="monospace" font-size="11" fill="#39FF14" text-anchor="middle">Spring Boot</text><rect x="197" y="374" width="41" height="22" rx="11" fill="#151A17" stroke="#2A332C" stroke-width="1"/><text x="217.5" y="389" font-family="monospace" font-size="11" fill="#39FF14" text-anchor="middle">JWT</text><rect x="246" y="374" width="55" height="22" rx="11" fill="#151A17" stroke="#2A332C" stroke-width="1"/><text x="273.5" y="389" font-family="monospace" font-size="11" fill="#39FF14" text-anchor="middle">MySQL</text><text x="864" y="410" font-family="monospace" font-size="12" fill="#56A8F5" text-anchor="end">github.com/vishva-2004/springboot-ecommerce-api &#8599;</text></svg>