<svg viewBox="0 0 240 240" xmlns="http://www.w3.org/2000/svg">
<rect width="240" height="240" fill="#0D0F10"/>
<g transform-origin="120 120">
  <animateTransform attributeName="transform" type="rotate" from="0 120 120" to="360 120 120" dur="10s" repeatCount="indefinite"/>
  <line x1="162.5" y1="100.0" x2="192.3" y2="145.0" stroke="#56A8F5" stroke-width="0.8" opacity="0.75"/><line x1="162.5" y1="100.0" x2="152.2" y2="173.5" stroke="#56A8F5" stroke-width="0.8" opacity="0.75"/><line x1="162.5" y1="100.0" x2="78.3" y2="163.4" stroke="#56A8F5" stroke-width="0.8" opacity="0.75"/><line x1="162.5" y1="100.0" x2="64.2" y2="159.3" stroke="#56A8F5" stroke-width="0.8" opacity="0.75"/><line x1="162.5" y1="100.0" x2="47.7" y2="95.0" stroke="#56A8F5" stroke-width="0.8" opacity="0.75"/><line x1="162.5" y1="100.0" x2="87.8" y2="106.5" stroke="#56A8F5" stroke-width="0.8" opacity="0.75"/><line x1="162.5" y1="100.0" x2="161.7" y2="76.6" stroke="#56A8F5" stroke-width="0.8" opacity="0.75"/><line x1="162.5" y1="100.0" x2="175.8" y2="120.7" stroke="#56A8F5" stroke-width="0.8" opacity="0.75"/><line x1="192.3" y1="145.0" x2="152.2" y2="173.5" stroke="#56A8F5" stroke-width="0.8" opacity="0.75"/><line x1="192.3" y1="145.0" x2="120.0" y2="125.5" stroke="#56A8F5" stroke-width="0.8" opacity="0.75"/><line x1="192.3" y1="145.0" x2="64.2" y2="159.3" stroke="#56A8F5" stroke-width="0.8" opacity="0.75"/><line x1="192.3" y1="145.0" x2="77.5" y2="100.0" stroke="#56A8F5" stroke-width="0.8" opacity="0.75"/><line x1="192.3" y1="145.0" x2="87.8" y2="106.5" stroke="#56A8F5" stroke-width="0.8" opacity="0.75"/><line x1="192.3" y1="145.0" x2="120.0" y2="74.5" stroke="#56A8F5" stroke-width="0.8" opacity="0.75"/><line x1="192.3" y1="145.0" x2="175.8" y2="120.7" stroke="#56A8F5" stroke-width="0.8" opacity="0.75"/><line x1="152.2" y1="173.5" x2="120.0" y2="125.5" stroke="#56A8F5" stroke-width="0.8" opacity="0.75"/><line x1="152.2" y1="173.5" x2="78.3" y2="163.4" stroke="#56A8F5" stroke-width="0.8" opacity="0.75"/><line x1="152.2" y1="173.5" x2="77.5" y2="100.0" stroke="#56A8F5" stroke-width="0.8" opacity="0.75"/><line x1="152.2" y1="173.5" x2="47.7" y2="95.0" stroke="#56A8F5" stroke-width="0.8" opacity="0.75"/><line x1="152.2" y1="173.5" x2="120.0" y2="74.5" stroke="#56A8F5" stroke-width="0.8" opacity="0.75"/><line x1="152.2" y1="173.5" x2="161.7" y2="76.6" stroke="#56A8F5" stroke-width="0.8" opacity="0.75"/><line x1="120.0" y1="125.5" x2="78.3" y2="163.4" stroke="#56A8F5" stroke-width="0.8" opacity="0.75"/><line x1="120.0" y1="125.5" x2="64.2" y2="159.3" stroke="#56A8F5" stroke-width="0.8" opacity="0.75"/><line x1="120.0" y1="125.5" x2="47.7" y2="95.0" stroke="#56A8F5" stroke-width="0.8" opacity="0.75"/><line x1="120.0" y1="125.5" x2="87.8" y2="106.5" stroke="#56A8F5" stroke-width="0.8" opacity="0.75"/><line x1="120.0" y1="125.5" x2="161.7" y2="76.6" stroke="#56A8F5" stroke-width="0.8" opacity="0.75"/><line x1="120.0" y1="125.5" x2="175.8" y2="120.7" stroke="#56A8F5" stroke-width="0.8" opacity="0.75"/><line x1="78.3" y1="163.4" x2="64.2" y2="159.3" stroke="#56A8F5" stroke-width="0.8" opacity="0.75"/><line x1="78.3" y1="163.4" x2="77.5" y2="100.0" stroke="#56A8F5" stroke-width="0.8" opacity="0.75"/><line x1="78.3" y1="163.4" x2="87.8" y2="106.5" stroke="#56A8F5" stroke-width="0.8" opacity="0.75"/><line x1="78.3" y1="163.4" x2="120.0" y2="74.5" stroke="#56A8F5" stroke-width="0.8" opacity="0.75"/><line x1="78.3" y1="163.4" x2="175.8" y2="120.7" stroke="#56A8F5" stroke-width="0.8" opacity="0.75"/><line x1="64.2" y1="159.3" x2="77.5" y2="100.0" stroke="#56A8F5" stroke-width="0.8" opacity="0.75"/><line x1="64.2" y1="159.3" x2="47.7" y2="95.0" stroke="#56A8F5" stroke-width="0.8" opacity="0.75"/><line x1="64.2" y1="159.3" x2="120.0" y2="74.5" stroke="#56A8F5" stroke-width="0.8" opacity="0.75"/><line x1="64.2" y1="159.3" x2="161.7" y2="76.6" stroke="#56A8F5" stroke-width="0.8" opacity="0.75"/><line x1="77.5" y1="100.0" x2="47.7" y2="95.0" stroke="#56A8F5" stroke-width="0.8" opacity="0.75"/><line x1="77.5" y1="100.0" x2="87.8" y2="106.5" stroke="#56A8F5" stroke-width="0.8" opacity="0.75"/><line x1="77.5" y1="100.0" x2="161.7" y2="76.6" stroke="#56A8F5" stroke-width="0.8" opacity="0.75"/><line x1="77.5" y1="100.0" x2="175.8" y2="120.7" stroke="#56A8F5" stroke-width="0.8" opacity="0.75"/><line x1="47.7" y1="95.0" x2="87.8" y2="106.5" stroke="#56A8F5" stroke-width="0.8" opacity="0.75"/><line x1="47.7" y1="95.0" x2="120.0" y2="74.5" stroke="#56A8F5" stroke-width="0.8" opacity="0.75"/><line x1="47.7" y1="95.0" x2="175.8" y2="120.7" stroke="#56A8F5" stroke-width="0.8" opacity="0.75"/><line x1="87.8" y1="106.5" x2="120.0" y2="74.5" stroke="#56A8F5" stroke-width="0.8" opacity="0.75"/><line x1="87.8" y1="106.5" x2="161.7" y2="76.6" stroke="#56A8F5" stroke-width="0.8" opacity="0.75"/><line x1="120.0" y1="74.5" x2="161.7" y2="76.6" stroke="#56A8F5" stroke-width="0.8" opacity="0.75"/><line x1="120.0" y1="74.5" x2="175.8" y2="120.7" stroke="#56A8F5" stroke-width="0.8" opacity="0.75"/><line x1="161.7" y1="76.6" x2="175.8" y2="120.7" stroke="#56A8F5" stroke-width="0.8" opacity="0.75"/>
  <circle cx="162.5" cy="100.0" r="2.4" fill="#CF8E6D"/><circle cx="192.3" cy="145.0" r="2.4" fill="#CF8E6D"/><circle cx="152.2" cy="173.5" r="2.4" fill="#CF8E6D"/><circle cx="120.0" cy="125.5" r="2.4" fill="#CF8E6D"/><circle cx="78.3" cy="163.4" r="2.4" fill="#CF8E6D"/><circle cx="64.2" cy="159.3" r="2.4" fill="#CF8E6D"/><circle cx="77.5" cy="100.0" r="2.4" fill="#CF8E6D"/><circle cx="47.7" cy="95.0" r="2.4" fill="#CF8E6D"/><circle cx="87.8" cy="106.5" r="2.4" fill="#CF8E6D"/><circle cx="120.0" cy="74.5" r="2.4" fill="#CF8E6D"/><circle cx="161.7" cy="76.6" r="2.4" fill="#CF8E6D"/><circle cx="175.8" cy="120.7" r="2.4" fill="#CF8E6D"/>
</g>
</svg>